<svg width="26" height="27" viewBox="0 0 26 27" fill="none" xmlns="http://www.w3.org/2000/svg">
<g clip-path="url(#clip0_38_2539)">
<rect x="4.23902" y="5.55591" width="0.847804" height="0.847804" fill="white"/>
<rect x="5.08683" y="5.55591" width="0.847804" height="0.847804" fill="white"/>
<rect x="5.93462" y="5.55591" width="0.847804" height="0.847804" fill="white"/>
<rect x="6.78246" y="5.55591" width="0.847804" height="0.847804" fill="white"/>
<rect x="7.63025" y="5.55591" width="0.847804" height="0.847804" fill="white"/>
<rect x="8.47804" y="5.55591" width="0.847804" height="0.847804" fill="white"/>
<rect x="9.32585" y="5.55591" width="0.847804" height="0.847804" fill="white"/>
<rect x="10.1736" y="5.55591" width="0.847804" height="0.847804" fill="white"/>
<rect x="10.1736" y="4.70801" width="0.847804" height="0.847804" fill="white"/>
<rect x="9.32585" y="4.70801" width="0.847804" height="0.847804" fill="white"/>
<rect x="9.32585" y="6.40369" width="0.847804" height="0.847804" fill="white"/>
<rect x="10.1736" y="6.40369" width="0.847804" height="0.847804" fill="white"/>
<rect x="8.47804" y="6.40369" width="0.847804" height="0.847804" fill="white"/>
<rect x="7.63025" y="6.40369" width="0.847804" height="0.847804" fill="white"/>
<rect x="6.78246" y="6.40369" width="0.847804" height="0.847804" fill="white"/>
<rect x="5.93462" y="6.40369" width="0.847804" height="0.847804" fill="white"/>
<rect x="5.08683" y="6.40369" width="0.847804" height="0.847804" fill="white"/>
<rect x="4.23902" y="6.40369" width="0.847804" height="0.847804" fill="white"/>
<rect x="10.1736" y="6.40369" width="0.847804" height="0.847804" fill="white"/>
<rect x="11.0215" y="6.40369" width="0.847804" height="0.847804" fill="white"/>
<rect x="11.0215" y="7.25146" width="0.847804" height="0.847804" fill="white"/>
<rect x="11.0215" y="8.09924" width="0.847804" height="0.847804" fill="white"/>
<rect x="11.0215" y="8.94702" width="0.847804" height="0.847804" fill="white"/>
<rect x="11.0215" y="9.79492" width="0.847804" height="0.847804" fill="white"/>
<rect x="11.0215" y="10.6427" width="0.847804" height="0.847804" fill="white"/>
<rect x="11.8693" y="9.79492" width="0.847804" height="0.847804" fill="white"/>
<rect x="11.8693" y="8.94702" width="0.847804" height="0.847804" fill="white"/>
<rect x="11.8693" y="8.09924" width="0.847804" height="0.847804" fill="white"/>
<rect x="12.7171" y="8.94702" width="0.847804" height="0.847804" fill="white"/>
<rect x="15.2605" y="10.6427" width="0.847804" height="0.847804" fill="white"/>
<rect x="14.4127" y="10.6427" width="0.847804" height="0.847804" fill="white"/>
<rect x="13.5649" y="10.6427" width="0.847804" height="0.847804" fill="white"/>
<rect x="12.7171" y="10.6427" width="0.847804" height="0.847804" fill="white"/>
<rect x="12.7171" y="11.4905" width="0.847804" height="0.847804" fill="white"/>
<rect x="13.5649" y="11.4905" width="0.847804" height="0.847804" fill="white"/>
<rect x="14.4127" y="11.4905" width="0.847804" height="0.847804" fill="white"/>
<rect x="15.2605" y="11.4905" width="0.847804" height="0.847804" fill="white"/>
<rect x="13.5649" y="12.3383" width="0.847804" height="0.847804" fill="white"/>
<rect x="14.4127" y="12.3383" width="0.847804" height="0.847804" fill="white"/>
<rect x="15.2605" y="12.3383" width="0.847804" height="0.847804" fill="white"/>
<rect x="14.4127" y="13.186" width="0.847804" height="0.847804" fill="white"/>
<rect x="14.4127" y="14.0339" width="0.847804" height="0.847804" fill="white"/>
<rect x="13.5649" y="14.0339" width="0.847804" height="0.847804" fill="white"/>
<rect x="12.7171" y="14.0339" width="0.847804" height="0.847804" fill="white"/>
<rect x="11.8693" y="13.186" width="0.847804" height="0.847804" fill="white"/>
<rect x="11.0215" y="12.3383" width="0.847804" height="0.847804" fill="white"/>
<rect x="10.1736" y="11.4905" width="0.847804" height="0.847804" fill="white"/>
<rect x="9.32585" y="11.4905" width="0.847804" height="0.847804" fill="white"/>
<rect x="8.47804" y="11.4905" width="0.847804" height="0.847804" fill="white"/>
<rect x="9.32585" y="12.3383" width="0.847804" height="0.847804" fill="white"/>
<rect x="10.1736" y="12.3383" width="0.847804" height="0.847804" fill="white"/>
<rect x="10.1736" y="13.186" width="0.847804" height="0.847804" fill="white"/>
<rect x="11.0215" y="14.0339" width="0.847804" height="0.847804" fill="white"/>
<rect x="11.8693" y="14.0339" width="0.847804" height="0.847804" fill="white"/>
<rect x="11.8693" y="14.8817" width="0.847804" height="0.847804" fill="white"/>
<rect x="12.7171" y="14.8817" width="0.847804" height="0.847804" fill="white"/>
<rect x="13.5649" y="14.8817" width="0.847804" height="0.847804" fill="white"/>
<rect x="11.8693" y="15.7295" width="0.847804" height="0.847804" fill="white"/>
<rect x="12.7171" y="15.7295" width="0.847804" height="0.847804" fill="white"/>
<rect x="12.7171" y="16.5773" width="0.847804" height="0.847804" fill="white"/>
<rect x="11.8693" y="10.6427" width="0.847804" height="0.847804" fill="white"/>
<rect x="13.5649" y="9.79492" width="0.847804" height="0.847804" fill="white"/>
<rect x="13.5649" y="9.79492" width="0.847804" height="0.847804" fill="white"/>
<rect x="12.7171" y="9.79492" width="0.847804" height="0.847804" fill="white"/>
<rect x="12.7171" y="9.79492" width="0.847804" height="0.847804" fill="white"/>
<rect x="4.23902" y="6.40369" width="0.847804" height="0.847804" fill="white"/>
<rect x="9.32585" y="7.25146" width="0.847804" height="0.847804" fill="white"/>
<rect x="8.47804" y="7.25146" width="0.847804" height="0.847804" fill="white"/>
<rect x="7.63025" y="7.25146" width="0.847804" height="0.847804" fill="white"/>
<rect x="6.78246" y="7.25146" width="0.847804" height="0.847804" fill="white"/>
<rect x="5.93462" y="7.25146" width="0.847804" height="0.847804" fill="white"/>
<rect x="5.08683" y="7.25146" width="0.847804" height="0.847804" fill="white"/>
<rect x="10.1736" y="7.25146" width="0.847804" height="0.847804" fill="white"/>
<rect x="4.23902" y="7.25146" width="0.847804" height="0.847804" fill="white"/>
<rect x="9.32585" y="8.09924" width="0.847804" height="0.847804" fill="white"/>
<rect x="8.47804" y="8.09924" width="0.847804" height="0.847804" fill="white"/>
<rect x="7.63025" y="8.09924" width="0.847804" height="0.847804" fill="white"/>
<rect x="6.78246" y="8.09924" width="0.847804" height="0.847804" fill="white"/>
<rect x="5.93462" y="8.09924" width="0.847804" height="0.847804" fill="white"/>
<rect x="5.08683" y="8.09924" width="0.847804" height="0.847804" fill="white"/>
<rect x="10.1736" y="8.09924" width="0.847804" height="0.847804" fill="white"/>
<rect x="4.23902" y="8.09924" width="0.847804" height="0.847804" fill="white"/>
<rect x="9.32585" y="8.94702" width="0.847804" height="0.847804" fill="white"/>
<rect x="8.47804" y="8.94702" width="0.847804" height="0.847804" fill="white"/>
<rect x="7.63025" y="8.94702" width="0.847804" height="0.847804" fill="white"/>
<rect x="6.78246" y="8.94702" width="0.847804" height="0.847804" fill="white"/>
<rect x="5.93462" y="8.94702" width="0.847804" height="0.847804" fill="white"/>
<rect x="5.08683" y="8.94702" width="0.847804" height="0.847804" fill="white"/>
<rect x="10.1736" y="8.94702" width="0.847804" height="0.847804" fill="white"/>
<rect x="9.32585" y="9.79492" width="0.847804" height="0.847804" fill="white"/>
<rect x="8.47804" y="9.79492" width="0.847804" height="0.847804" fill="white"/>
<rect x="7.63025" y="9.79492" width="0.847804" height="0.847804" fill="white"/>
<rect x="6.78246" y="9.79492" width="0.847804" height="0.847804" fill="white"/>
<rect x="5.93462" y="9.79492" width="0.847804" height="0.847804" fill="white"/>
<rect x="10.1736" y="9.79492" width="0.847804" height="0.847804" fill="white"/>
<rect x="10.1736" y="10.6427" width="0.847804" height="0.847804" fill="white"/>
<rect x="9.32585" y="10.6427" width="0.847804" height="0.847804" fill="white"/>
<rect x="8.47804" y="10.6427" width="0.847804" height="0.847804" fill="white"/>
<rect x="7.63025" y="10.6427" width="0.847804" height="0.847804" fill="white"/>
<rect x="6.78246" y="10.6427" width="0.847804" height="0.847804" fill="white"/>
<rect x="4.23902" y="8.94702" width="0.847804" height="0.847804" fill="white"/>
<rect x="3.39123" y="6.40369" width="0.847804" height="0.847804" fill="white"/>
<rect x="3.39123" y="7.25146" width="0.847804" height="0.847804" fill="white"/>
<rect x="2.54342" y="7.25146" width="0.847804" height="0.847804" fill="white"/>
<rect x="2.54342" y="8.09924" width="0.847804" height="0.847804" fill="white"/>
<rect x="1.6956" y="8.09924" width="0.847804" height="0.847804" fill="white"/>
<rect x="1.6956" y="8.94702" width="0.847804" height="0.847804" fill="white"/>
<rect x="0.847807" y="8.94702" width="0.847804" height="0.847804" fill="white"/>
<rect x="0.847807" y="9.79492" width="0.847804" height="0.847804" fill="white"/>
<rect x="0.847807" y="10.6427" width="0.847804" height="0.847804" fill="white"/>
<rect x="1.6956" y="10.6427" width="0.847804" height="0.847804" fill="white"/>
<rect x="1.6956" y="9.79492" width="0.847804" height="0.847804" fill="white"/>
<rect x="2.54342" y="9.79492" width="0.847804" height="0.847804" fill="white"/>
<rect x="2.54342" y="8.94702" width="0.847804" height="0.847804" fill="white"/>
<rect x="3.39123" y="8.94702" width="0.847804" height="0.847804" fill="white"/>
<rect x="3.39123" y="8.09924" width="0.847804" height="0.847804" fill="white"/>
<rect x="3.39123" y="9.79492" width="0.847804" height="0.847804" fill="white"/>
<rect x="4.23902" y="9.79492" width="0.847804" height="0.847804" fill="white"/>
<rect x="5.08683" y="9.79492" width="0.847804" height="0.847804" fill="white"/>
<rect x="5.08683" y="10.6427" width="0.847804" height="0.847804" fill="white"/>
<rect x="5.93462" y="10.6427" width="0.847804" height="0.847804" fill="white"/>
<rect x="5.93462" y="11.4905" width="0.847804" height="0.847804" fill="white"/>
<rect x="6.78246" y="11.4905" width="0.847804" height="0.847804" fill="white"/>
<rect x="7.63025" y="12.3383" width="0.847804" height="0.847804" fill="white"/>
<rect x="7.63025" y="12.3383" width="0.847804" height="0.847804" fill="white"/>
<rect x="8.47804" y="12.3383" width="0.847804" height="0.847804" fill="white"/>
<rect x="8.47804" y="13.186" width="0.847804" height="0.847804" fill="white"/>
<rect x="9.32585" y="13.186" width="0.847804" height="0.847804" fill="white"/>
<rect x="9.32585" y="14.0339" width="0.847804" height="0.847804" fill="white"/>
<rect x="10.1736" y="14.0339" width="0.847804" height="0.847804" fill="white"/>
<rect x="10.1736" y="14.8817" width="0.847804" height="0.847804" fill="white"/>
<rect x="11.0215" y="14.8817" width="0.847804" height="0.847804" fill="white"/>
<rect x="11.0215" y="15.7295" width="0.847804" height="0.847804" fill="white"/>
<rect x="11.0215" y="16.5773" width="0.847804" height="0.847804" fill="white"/>
<rect x="11.8693" y="16.5773" width="0.847804" height="0.847804" fill="white"/>
<rect x="11.8693" y="17.4252" width="0.847804" height="0.847804" fill="white"/>
<rect x="12.7171" y="17.4252" width="0.847804" height="0.847804" fill="white"/>
<rect x="12.7171" y="18.2729" width="0.847804" height="0.847804" fill="white"/>
<rect x="13.5649" y="18.2729" width="0.847804" height="0.847804" fill="white"/>
<rect x="7.63025" y="11.4905" width="0.847804" height="0.847804" fill="white"/>
<rect x="7.63025" y="11.4905" width="0.847804" height="0.847804" fill="white"/>
<rect y="10.6427" width="0.847804" height="0.847804" fill="white"/>
<rect y="11.4905" width="0.847804" height="0.847804" fill="white"/>
<rect y="12.3383" width="0.847804" height="0.847804" fill="white"/>
<rect y="13.186" width="0.847804" height="0.847804" fill="white"/>
<rect y="14.0339" width="0.847804" height="0.847804" fill="white"/>
<rect x="0.847807" y="14.0339" width="0.847804" height="0.847804" fill="white"/>
<rect x="0.847807" y="14.8817" width="0.847804" height="0.847804" fill="white"/>
<rect y="14.8817" width="0.847804" height="0.847804" fill="white"/>
<rect y="15.7295" width="0.847804" height="0.847804" fill="white"/>
<rect x="0.847807" y="15.7295" width="0.847804" height="0.847804" fill="white"/>
<rect x="1.6956" y="15.7295" width="0.847804" height="0.847804" fill="white"/>
<rect x="1.6956" y="14.8817" width="0.847804" height="0.847804" fill="white"/>
<rect x="1.6956" y="14.0339" width="0.847804" height="0.847804" fill="white"/>
<rect x="2.54342" y="15.7295" width="0.847804" height="0.847804" fill="white"/>
<rect x="2.54342" y="16.5773" width="0.847804" height="0.847804" fill="white"/>
<rect x="1.6956" y="16.5773" width="0.847804" height="0.847804" fill="white"/>
<rect x="0.847807" y="16.5773" width="0.847804" height="0.847804" fill="white"/>
<rect x="0.847807" y="17.4252" width="0.847804" height="0.847804" fill="white"/>
<rect x="1.6956" y="17.4252" width="0.847804" height="0.847804" fill="white"/>
<rect x="2.54342" y="17.4252" width="0.847804" height="0.847804" fill="white"/>
<rect x="2.54342" y="18.2729" width="0.847804" height="0.847804" fill="white"/>
<rect x="1.6956" y="18.2729" width="0.847804" height="0.847804" fill="white"/>
<rect x="1.6956" y="19.1207" width="0.847804" height="0.847804" fill="white"/>
<rect x="2.54342" y="19.1207" width="0.847804" height="0.847804" fill="white"/>
<rect x="3.39123" y="19.1207" width="0.847804" height="0.847804" fill="white"/>
<rect x="3.39123" y="18.2729" width="0.847804" height="0.847804" fill="white"/>
<rect x="3.39123" y="17.4252" width="0.847804" height="0.847804" fill="white"/>
<rect x="4.23902" y="18.2729" width="0.847804" height="0.847804" fill="white"/>
<rect x="4.23902" y="19.1207" width="0.847804" height="0.847804" fill="white"/>
<rect x="4.23902" y="19.9685" width="0.847804" height="0.847804" fill="white"/>
<rect x="3.39123" y="19.9685" width="0.847804" height="0.847804" fill="white"/>
<rect x="2.54342" y="19.9685" width="0.847804" height="0.847804" fill="white"/>
<rect x="3.39123" y="20.8163" width="0.847804" height="0.847804" fill="white"/>
<rect x="4.23902" y="20.8163" width="0.847804" height="0.847804" fill="white"/>
<rect x="5.08683" y="20.8163" width="0.847804" height="0.847804" fill="white"/>
<rect x="5.08683" y="21.6642" width="0.847804" height="0.847804" fill="white"/>
<rect x="5.93462" y="21.6642" width="0.847804" height="0.847804" fill="white"/>
<rect x="5.93462" y="20.8163" width="0.847804" height="0.847804" fill="white"/>
<rect x="5.93462" y="19.9685" width="0.847804" height="0.847804" fill="white"/>
<rect x="5.08683" y="19.1207" width="0.847804" height="0.847804" fill="white"/>
<rect x="5.93462" y="19.1207" width="0.847804" height="0.847804" fill="white"/>
<rect x="6.78246" y="19.1207" width="0.847804" height="0.847804" fill="white"/>
<rect x="6.78246" y="18.2729" width="0.847804" height="0.847804" fill="white"/>
<rect x="6.78246" y="17.4252" width="0.847804" height="0.847804" fill="white"/>
<rect x="7.63025" y="18.2729" width="0.847804" height="0.847804" fill="white"/>
<rect x="7.63025" y="19.1207" width="0.847804" height="0.847804" fill="white"/>
<rect x="8.47804" y="19.1207" width="0.847804" height="0.847804" fill="white"/>
<rect x="7.63025" y="17.4252" width="0.847804" height="0.847804" fill="white"/>
<rect x="8.47804" y="18.2729" width="0.847804" height="0.847804" fill="white"/>
<rect x="9.32585" y="19.1207" width="0.847804" height="0.847804" fill="white"/>
<rect x="10.1736" y="19.9685" width="0.847804" height="0.847804" fill="white"/>
<rect x="9.32585" y="19.9685" width="0.847804" height="0.847804" fill="white"/>
<rect x="8.47804" y="19.9685" width="0.847804" height="0.847804" fill="white"/>
<rect x="7.63025" y="19.9685" width="0.847804" height="0.847804" fill="white"/>
<rect x="6.78246" y="19.9685" width="0.847804" height="0.847804" fill="white"/>
<rect x="6.78246" y="21.6642" width="0.847804" height="0.847804" fill="white"/>
<rect x="7.63025" y="21.6642" width="0.847804" height="0.847804" fill="white"/>
<rect x="8.47804" y="21.6642" width="0.847804" height="0.847804" fill="white"/>
<rect x="9.32585" y="21.6642" width="0.847804" height="0.847804" fill="white"/>
<rect x="10.1736" y="21.6642" width="0.847804" height="0.847804" fill="white"/>
<rect x="11.0215" y="21.6642" width="0.847804" height="0.847804" fill="white"/>
<rect x="13.5649" y="21.6642" width="0.847804" height="0.847804" fill="white"/>
<rect x="11.0215" y="20.8163" width="0.847804" height="0.847804" fill="white"/>
<rect x="11.0215" y="19.9685" width="0.847804" height="0.847804" fill="white"/>
<rect x="11.8693" y="20.8163" width="0.847804" height="0.847804" fill="white"/>
<rect x="12.7171" y="20.8163" width="0.847804" height="0.847804" fill="white"/>
<rect x="14.4127" y="20.8163" width="0.847804" height="0.847804" fill="white"/>
<rect x="15.2604" y="20.8163" width="0.847804" height="0.847804" fill="white"/>
<rect x="16.1083" y="20.8163" width="0.847804" height="0.847804" fill="white"/>
<rect x="12.7171" y="19.9685" width="0.847804" height="0.847804" fill="white"/>
<rect x="13.5649" y="19.9685" width="0.847804" height="0.847804" fill="white"/>
<rect x="14.4127" y="19.9685" width="0.847804" height="0.847804" fill="white"/>
<rect x="13.5649" y="19.1207" width="0.847804" height="0.847804" fill="white"/>
<rect x="15.2605" y="19.1207" width="0.847804" height="0.847804" fill="white"/>
<rect x="16.9561" y="19.1207" width="0.847804" height="0.847804" fill="white"/>
<rect x="18.6517" y="19.1207" width="0.847804" height="0.847804" fill="white"/>
<rect x="17.8038" y="20.8163" width="0.847804" height="0.847804" fill="white"/>
<rect x="19.4992" y="19.1207" width="0.847804" height="0.847804" fill="white"/>
<rect x="19.4992" y="20.8163" width="0.847804" height="0.847804" fill="white"/>
<rect x="20.347" y="21.6642" width="0.847804" height="0.847804" fill="white"/>
<rect x="19.4992" y="21.6642" width="0.847804" height="0.847804" fill="white"/>
<rect x="18.6517" y="21.6642" width="0.847804" height="0.847804" fill="white"/>
<rect x="20.347" y="19.1207" width="0.847804" height="0.847804" fill="white"/>
<rect x="21.1948" y="19.1207" width="0.847804" height="0.847804" fill="white"/>
<rect x="22.8904" y="19.1207" width="0.847804" height="0.847804" fill="white"/>
<rect x="23.7382" y="19.1207" width="0.847804" height="0.847804" fill="white"/>
<rect x="24.586" y="19.1207" width="0.847804" height="0.847804" fill="white"/>
<rect x="16.1083" y="18.2729" width="0.847804" height="0.847804" fill="white"/>
<rect x="15.2605" y="18.2729" width="0.847804" height="0.847804" fill="white"/>
<rect x="14.4127" y="18.2729" width="0.847804" height="0.847804" fill="white"/>
<rect x="15.2605" y="17.4252" width="0.847804" height="0.847804" fill="white"/>
<rect x="16.9562" y="17.4252" width="0.847804" height="0.847804" fill="white"/>
<rect x="17.804" y="17.4252" width="0.847804" height="0.847804" fill="white"/>
<rect x="22.0426" y="17.4252" width="4.29512" height="0.847804" fill="white"/>
<rect x="16.1083" y="16.5773" width="0.847804" height="0.847804" fill="white"/>
<rect x="17.8039" y="15.7295" width="0.847804" height="0.847804" fill="white"/>
<rect x="16.9561" y="14.8817" width="0.847804" height="0.847804" fill="white"/>
<rect x="18.6517" y="14.0339" width="0.847804" height="0.847804" fill="white"/>
<rect x="22.0426" y="14.0339" width="0.847804" height="0.847804" fill="white"/>
<rect x="22.8909" y="14.0339" width="0.847804" height="0.847804" fill="white"/>
<rect x="21.1952" y="14.0339" width="0.847804" height="0.847804" fill="white"/>
<rect x="17.8039" y="13.186" width="0.847804" height="0.847804" fill="white"/>
<rect x="17.8039" y="12.3383" width="0.847804" height="0.847804" fill="white"/>
<rect x="17.8039" y="10.6427" width="0.847804" height="0.847804" fill="white"/>
<rect x="16.9561" y="10.6427" width="0.847804" height="0.847804" fill="white"/>
<rect x="16.9561" y="9.79492" width="0.847804" height="0.847804" fill="white"/>
<rect x="17.8039" y="8.94702" width="0.847804" height="0.847804" fill="white"/>
<rect x="20.3473" y="8.09924" width="0.847804" height="0.847804" fill="white"/>
<rect x="21.1948" y="8.09924" width="0.847804" height="0.847804" fill="white"/>
<rect x="19.4995" y="7.25146" width="0.847804" height="0.847804" fill="white"/>
<rect x="19.4995" y="6.40369" width="0.847804" height="0.847804" fill="white"/>
<rect x="18.6517" y="6.40369" width="0.847804" height="0.847804" fill="white"/>
<rect x="18.6517" y="7.25146" width="0.847804" height="0.847804" fill="white"/>
<rect x="17.8039" y="7.25146" width="0.847804" height="0.847804" fill="white"/>
<rect x="17.8039" y="8.09924" width="0.847804" height="0.847804" fill="white"/>
<rect x="16.9561" y="8.09924" width="0.847804" height="0.847804" fill="white"/>
<rect x="16.9561" y="8.94702" width="0.847804" height="0.847804" fill="white"/>
<rect x="16.1083" y="8.09924" width="0.847804" height="0.847804" fill="white"/>
<rect x="16.1083" y="7.25146" width="0.847804" height="0.847804" fill="white"/>
<rect x="16.9561" y="7.25146" width="0.847804" height="0.847804" fill="white"/>
<rect x="16.1083" y="6.40369" width="0.847804" height="0.847804" fill="white"/>
<rect x="15.2605" y="5.55591" width="0.847804" height="0.847804" fill="white"/>
<rect x="14.4127" y="4.70801" width="0.847804" height="0.847804" fill="white"/>
<rect x="14.4127" y="5.55591" width="0.847804" height="0.847804" fill="white"/>
<rect x="15.2605" y="6.40369" width="0.847804" height="0.847804" fill="white"/>
<rect x="14.4127" y="6.40369" width="0.847804" height="0.847804" fill="white"/>
<rect x="15.2605" y="7.25146" width="0.847804" height="0.847804" fill="white"/>
<rect x="15.2605" y="8.09924" width="0.847804" height="0.847804" fill="white"/>
<rect x="14.4127" y="7.25146" width="0.847804" height="0.847804" fill="white"/>
<rect x="16.1083" y="8.94702" width="0.847804" height="0.847804" fill="white"/>
<rect x="18.6517" y="8.94702" width="0.847804" height="0.847804" fill="white"/>
<rect x="18.6517" y="9.79492" width="0.847804" height="0.847804" fill="white"/>
<rect x="19.4995" y="9.79492" width="0.847804" height="0.847804" fill="white"/>
<rect x="23.7387" y="9.79492" width="0.847804" height="0.847804" fill="white"/>
<rect x="22.8909" y="9.79492" width="0.847804" height="0.847804" fill="white"/>
<rect x="24.5866" y="9.79492" width="0.847804" height="0.847804" fill="white"/>
<rect x="22.8908" y="8.09924" width="0.847804" height="0.847804" fill="white"/>
<rect x="24.5864" y="8.09924" width="0.847804" height="0.847804" fill="white"/>
<rect x="20.3473" y="7.25146" width="0.847804" height="0.847804" fill="white"/>
<rect x="20.3473" y="5.55591" width="0.847804" height="0.847804" fill="white"/>
<rect x="21.1951" y="5.55591" width="0.847804" height="0.847804" fill="white"/>
<rect x="22.043" y="5.55591" width="0.847804" height="0.847804" fill="white"/>
<rect x="23.7913" y="5.55591" width="0.847804" height="0.847804" fill="white"/>
<rect x="16.1083" y="10.6427" width="0.847804" height="0.847804" fill="white"/>
<rect x="16.1083" y="11.4905" width="0.847804" height="0.847804" fill="white"/>
<rect x="16.9561" y="11.4905" width="0.847804" height="0.847804" fill="white"/>
<rect x="19.4995" y="12.3383" width="0.847804" height="0.847804" fill="white"/>
<rect x="20.347" y="12.3383" width="0.847804" height="0.847804" fill="white"/>
<rect x="24.5411" y="12.3383" width="0.847804" height="0.847804" fill="white"/>
<rect x="22.8455" y="12.3383" width="0.847804" height="0.847804" fill="white"/>
<rect x="16.1083" y="12.3383" width="0.847804" height="0.847804" fill="white"/>
<rect x="16.1083" y="13.186" width="0.847804" height="0.847804" fill="white"/>
<rect x="15.2605" y="13.186" width="0.847804" height="0.847804" fill="white"/>
<rect x="15.2605" y="14.0339" width="0.847804" height="0.847804" fill="white"/>
<rect x="16.1083" y="14.0339" width="0.847804" height="0.847804" fill="white"/>
<rect x="16.9561" y="13.186" width="0.847804" height="0.847804" fill="white"/>
<rect x="16.1083" y="14.8817" width="0.847804" height="0.847804" fill="white"/>
<rect x="15.2605" y="14.8817" width="0.847804" height="0.847804" fill="white"/>
<rect x="14.4127" y="14.8817" width="0.847804" height="0.847804" fill="white"/>
<rect x="14.4127" y="15.7295" width="0.847804" height="0.847804" fill="white"/>
<rect x="15.2605" y="15.7295" width="0.847804" height="0.847804" fill="white"/>
<rect x="14.4127" y="16.5773" width="0.847804" height="0.847804" fill="white"/>
<rect x="14.4127" y="17.4252" width="0.847804" height="0.847804" fill="white"/>
<rect x="16.1084" y="17.4252" width="0.847804" height="0.847804" fill="white"/>
<rect x="13.5649" y="15.7295" width="0.847804" height="0.847804" fill="white"/>
<rect x="13.5649" y="17.4252" width="0.847804" height="0.847804" fill="white"/>
<rect x="13.5649" y="16.5773" width="0.847804" height="0.847804" fill="white"/>
<rect x="13.5649" y="15.7295" width="0.847804" height="0.847804" fill="white"/>
<rect x="13.5649" y="17.4252" width="0.847804" height="0.847804" fill="white"/>
<rect x="13.5649" y="16.5773" width="0.847804" height="0.847804" fill="white"/>
<rect x="11.8693" y="19.9685" width="0.847804" height="0.847804" fill="white"/>
<rect x="6.78246" y="20.8163" width="0.847804" height="0.847804" fill="white"/>
<rect x="7.63025" y="20.8163" width="0.847804" height="0.847804" fill="white"/>
<rect x="8.47804" y="20.8163" width="0.847804" height="0.847804" fill="white"/>
<rect x="9.32585" y="20.8163" width="0.847804" height="0.847804" fill="white"/>
<rect x="10.1736" y="20.8163" width="0.847804" height="0.847804" fill="white"/>
<rect x="5.08683" y="19.9685" width="0.847804" height="0.847804" fill="white"/>
<rect x="0.847807" y="13.186" width="0.847804" height="0.847804" fill="white"/>
<rect x="0.847807" y="12.3383" width="0.847804" height="0.847804" fill="white"/>
<rect x="0.847807" y="11.4905" width="0.847804" height="0.847804" fill="white"/>
</g>
<defs>
<clipPath id="clip0_38_2539">
<rect width="25.3889" height="25.3889" fill="white" transform="translate(0 0.915527)"/>
</clipPath>
</defs>
</svg>
